<svg xmlns="http://www.w3.org/2000/svg" width="69.233" height="54.972" viewBox="0 0 69.233 54.972"><path d="M31.749,15.413,10.871,32.607V51.166a1.812,1.812,0,0,0,1.812,1.812l12.689-.033a1.812,1.812,0,0,0,1.8-1.812V40.3a1.812,1.812,0,0,1,1.812-1.812h7.247A1.812,1.812,0,0,1,38.046,40.3v10.83a1.812,1.812,0,0,0,1.812,1.817l12.685.035a1.812,1.812,0,0,0,1.812-1.812V32.6L33.481,15.413A1.38,1.38,0,0,0,31.749,15.413ZM64.726,27.1,55.26,19.3V3.612A1.359,1.359,0,0,0,53.9,2.254H47.56A1.359,1.359,0,0,0,46.2,3.612v8.222L36.063,3.493a5.435,5.435,0,0,0-6.907,0L.492,27.1a1.359,1.359,0,0,0-.181,1.914L3.2,32.524a1.359,1.359,0,0,0,1.915.185L31.749,10.77a1.38,1.38,0,0,1,1.733,0L60.118,32.708a1.359,1.359,0,0,0,1.914-.181l2.888-3.51a1.359,1.359,0,0,0-.192-1.917Z" transform="translate(2.003 -0.005)" fill="none" stroke="#fff" stroke-width="4"/></svg>