<svg xmlns="http://www.w3.org/2000/svg" width="60.666" height="56.339" viewBox="0 0 60.666 56.339"><g transform="translate(2 2.031)"><path d="M51.868,11.25H11.548a8.179,8.179,0,0,0-8.173,8.173V42.307a8.179,8.179,0,0,0,8.173,8.173h40.32a8.179,8.179,0,0,0,8.173-8.173V19.423A8.179,8.179,0,0,0,51.868,11.25Z" transform="translate(-3.375 1.828)" fill="none" stroke="#fff" stroke-width="4"/><path d="M42.491,4.637l-32,6.252C8.042,11.434,4.5,13.9,4.5,16.9c0,0,2.043-2.588,6.675-2.588H50.269V11.516a7.822,7.822,0,0,0-1.893-5.122h0A6.442,6.442,0,0,0,42.491,4.637Z" transform="translate(-2.321 -4.499)" fill="none" stroke="#fff" stroke-width="4"/></g></svg>