<svg xmlns="http://www.w3.org/2000/svg" width="69.946" height="56.609" viewBox="0 0 69.946 56.609">
  <path id="Icon_awesome-user-check" data-name="Icon awesome-user-check" d="M23.017,26.3A13.152,13.152,0,1,0,9.864,13.152,13.151,13.151,0,0,0,23.017,26.3Zm9.207,3.288H30.507a17.887,17.887,0,0,1-14.981,0H13.81A13.814,13.814,0,0,0,0,43.4v4.275a4.933,4.933,0,0,0,4.932,4.932H41.1a4.933,4.933,0,0,0,4.932-4.932V43.4A13.814,13.814,0,0,0,32.223,29.593ZM65.412,16.4l-2.857-2.887a1.219,1.219,0,0,0-1.726-.01L50.061,24.188l-4.675-4.706a1.219,1.219,0,0,0-1.726-.01l-2.887,2.867a1.219,1.219,0,0,0-.01,1.726l8.395,8.457a1.219,1.219,0,0,0,1.726.01L65.4,18.126a1.228,1.228,0,0,0,.01-1.726Z" transform="translate(2 2)" fill="currentColor" stroke="#f84" stroke-width="4"/>
</svg>
